<?xml version="1.0" encoding="UTF-8"?>
<svg id="Layer_1" data-name="Layer 1" xmlns="http://www.w3.org/2000/svg" viewBox="0 0 702.76 191.05">
  <defs>
    <style>
      .cls-1 {
        stroke: #000;
        stroke-miterlimit: 10;
        stroke-width: .5px;
      }
    </style>
  </defs>
  <path d="M75.95,190.82c-11.3,1.44-20.02-4.07-25.42-12.74-2.78-5.68-4.53-11.62-5.99-18.33l-44.54-.06V.03S139.99,0,139.99,0c1.33,0,2.72.26,4.77.77v158.95s-46.24.02-46.24.02c-1.53,7.2-3.61,13.52-6.92,19.99-3.72,5.53-8.4,10.16-15.65,11.09ZM31.18,23.51c5.4-7.37,11.7-10.61,19.5-14.64l3.73-1.67-47.44.04-.05,94.55c11.37,10.71,25.63,19.34,41.73,15.25,7.38-1.87,13.93-5.31,19-11.12v-38.86c0-.62-1.07-2.19-1.49-2.31-18.57-5.53-30.77-22.07-34.99-41.24ZM72.39,106.07c9.08,5.87,18.43,9.27,28.76,9.86,13.49.78,25.99-7.52,36.42-17.2V7.2s-47.2.01-47.2.01l3.02,1.19c6.02,3.48,11.27,6.74,16.89,10.9-.3,27.19-15.21,37.73-37.89,46.18v40.59ZM48.69,153.52l1.1,7.44c1.13,5.9,2.91,11.62,6.45,16.79,4.86,7.07,13.71,10.31,21.89,7.61,16.92-5.59,17.9-41.69,17.63-56.7-.02-.93.79-3.43,1.56-3.86s3.39,2.02,3.35,3.1l-.81,24.56,34.15.21c.89,0,3.52-.55,3.52-1.64v-45.18c-14.88,10.59-26.3,17.95-45.27,13.74-7.12-1.58-14.9-4.87-20.37-7.84-3.13-1.7-1.63.15-9.44,4.84-19.65,11.81-37.63,5.87-55.44-7.61l-.13,41.74c0,.45,1.25,1.96,2.04,1.96l34.63-.16c.77-4.81-1.58-30.18,4.23-28.95.81.17,1.67,2.13,1.59,3.03-.89,9.32-1.2,17.68-.68,26.94Z"/>
  <path d="M472.63,74.03l.1,8.33-10.86.27-.08,42.76-7.75.09c-.66,0-1.41-2.1-1.42-3.09l-.03-39.78-18.71-.13v42.76s-9.19-.05-9.19-.05l-.07-42.54-9.94-.31-.19-8.21,9.94-.28.33-14.23c.06-2.55.67-5.61,1.38-8.19,2.62-9.6,12.78-10.08,21.79-8.83l-.68,7.13c-.03.32-.51,1.62-.81,1.57l-1.78-.32c-2.32-.42-6.11-.26-8.1,1.46-1.17,1.02-2.48,4.59-2.47,6.13l.08,15.41,18.29-.09.25-16.34c.03-1.9.96-5.25,1.6-7.05,3.23-8.94,13.19-9.09,21.59-7.87l-1.18,8.7-5.09-.61c-3.08-.37-7.3,2.32-7.41,5.93l-.53,17.2,10.92.17Z"/>
  <path d="M243.06,134.15c1.7-2.36,7.71,9.53,21.03,7.3s14.58-13.13,14.01-24.69c-1.81,2.15-3.65,4.59-6.08,5.91-12.34,6.73-27.38,1.11-32.78-11.9-3.84-9.27-2.9-19.44,2.05-27.8,4.19-7.08,11.57-10.8,19.64-10.88,6.64-.07,12.18,2.71,16.75,7.48l.58-6.1,9.06.25-.05,53.05c0,6.19-2.98,12.47-7.26,16.83-10.63,10.82-32.66,9.1-42.24-2.12l5.28-7.31ZM264.41,116.11c5.03-.57,9.61-3.35,11.84-8.18,2.62-5.68,2.51-12.33-.24-18.2-2.6-5.54-7.95-8.49-13.92-8.21-5.66-.18-10.63,3.09-13.04,8.06-2.88,5.95-3.1,13.08.14,19.19,2.31,4.36,6.59,6.52,11.07,7.47l4.15-.13Z"/>
  <path d="M653.05,142.1l6.27-8.43c5.64,6.31,12.08,9.2,20.35,8.11,13.63-1.8,14.6-14.06,13.7-24.98-1.63,2.49-3.59,5.19-6.31,6.6-12.05,6.27-26.92.93-32.33-11.87-3.81-9.03-3.16-19.23,1.75-27.72,4.1-7.09,11.16-10.89,19.08-11.22,7-.29,13.02,2.35,17.49,7.7l.94-6.22,6.59-.29c.51-.02,2.19,1.41,2.19,2.26v49.49c-.01,7.4-2.63,13.92-7.59,18.79-10.19,10.02-31.35,9.34-42.12-2.23ZM679.06,116.63c5.78-.39,10.06-3.09,12.38-7.91,3.21-6.67,2.8-14.55-1.31-20.61-2.97-4.37-8.02-6.44-13.02-6.19-4.57.23-9.51,2.57-12.14,7.13-3.13,5.43-3.6,12.47-1.19,18.53s8.26,9.52,15.28,9.04Z"/>
  <path d="M214.03,111.06c-4.96,13.58-20.1,19.66-32.78,12.89-2.31-1.23-4.15-3.39-5.99-5.31l-.55,6.93-9.21-.42-.03-79.29c0-.43.59-2.39.98-2.38l8.49.24.09,36.27c4.61-4.32,9.28-7.01,15.16-7.39,10.86-.71,20.23,5.51,23.84,15.44,2.62,7.22,2.87,15.18,0,23.02ZM189.73,117.34c5.81.06,10.24-2.24,13.41-6.55,3.89-7,4.26-15.29-.02-22.14-3.01-4.82-8.23-6.95-13.41-6.72-4.6.2-9.48,2.68-12.09,7.08-3.33,5.62-3.29,12.35-1.35,18.67,2.56,5.54,6.83,9.26,13.45,9.67Z"/>
  <path d="M583.91,119.02c-5.02,5.24-11.11,8.08-18.2,7.64-9.35-.59-16.93-6.2-20.41-14.73-5.67-13.91-1.12-33.18,13.78-38.02,7.51-2.44,15.31-1.68,21.27,3.09l3.79,3.03.15-36.48,9.15.53v79.62c-.01,1.57-2.93,2.09-3.81,1.99l-5.17-.55-.54-6.11ZM567.69,117.31c5.73.24,11.15-2.33,13.91-7.55,3.63-6.85,3.55-15.47-1.14-22-3.58-4.98-9.37-6.53-15.11-5.53-11.23,1.97-14.93,15.77-10.87,25.72,2.24,5.5,7.13,9.11,13.2,9.36Z"/>
  <path d="M646.96,111.47c-4.01,9.16-12.42,14.43-20.98,15.11-9.86.79-18.8-4.05-23.76-12.59s-5.16-19.71-.12-28.52c4.78-8.37,13.37-13.32,22.92-12.89,8.85.4,17.26,5.57,21.54,14.29,3.72,7.57,4.01,16.37.41,24.59ZM636.58,110.49c3.87-6.37,3.82-13.69,1.08-19.84-2.52-5.67-7.86-8.86-14.04-8.73s-11.7,3.67-13.92,9.82c-1.77,4.92-1.82,10.86.08,15.86,2.22,5.85,7.37,9.16,12.48,9.7,5.41.57,11.11-1.52,14.32-6.81Z"/>
  <path d="M502.92,138.7c-2.82,7.73-7.34,13.17-16.18,12.58-2.01-.13-5.04-.65-7.05-1.27l-.09-5.22.81-2.84c.49-1.74,10.16,3.18,13.28-5.21l4.15-11.13-19.62-51.25,7.81-.45,1.92.2c.51.05,1.43,1.41,1.65,2.03l13.39,37.62,13.41-39.52c3.65-.21,6.51-.21,9.93.13l-23.42,64.34Z"/>
  <path d="M408.68,74.14l-.02,51-8.95.36-.49-6.26-3.63,3.23c-6.27,5.58-16.33,5.71-22.93.6-3.67-2.85-6.36-8.48-6.37-13.05l-.08-35.92,9.19.11.13,32.3c0,2.2,1.77,6.43,3.46,7.98,3.34,3.06,7.72,3.42,11.44,2.22,7.06-2.29,9.04-9.65,9.04-16.89v-25.71s9.21.02,9.21.02Z"/>
  <path d="M328.23,124.8c-2.61.69-5.72.73-9.13.52l-.1-42.72-9.16-.22c-.55-.01-1.24-2.18-1.18-2.73l.65-5.62,9.65-.05.18-15.39c.07-5.92,2.96-13.98,9.6-15.63,3.78-.94,8.45-.91,13.54-.48l-1.02,8.89-5.32-.6c-3.84-.43-7.25,3-7.34,6.9l-.37,16.11,10.77.29.17,8.29-10.83.19-.11,42.25Z"/>
  <path d="M356.25,124.66c-2.75.96-5.73.95-9.22.6l-.03-81.47,9.22-.02.03,80.88Z"/>
  <path d="M231.41,124.92c-2.77.39-5.71.49-9.2.48l-.06-51.15c2.98-.16,6.06-.15,9.22.01l.04,50.65Z"/>
  <path d="M233.36,54.34c.76,4.73-2.52,8.96-7.4,8.45-3.25-.34-5.88-3.89-6.02-6.59-.18-3.36,1.95-6.71,5.2-7.54,3.89-1,7.52,1.32,8.22,5.68Z"/>
  <path d="M73.48,158.18c.08,1.84-1.48,3.96-2.58,3.77-.97-.17-2.32-1.93-2.35-3.19l-.85-28.93c-.02-.77,1.63-2.38,2.24-2.24s2.25,1.47,2.28,2.22l1.26,28.37Z"/>
  <g>
    <path class="cls-1" d="M538.64,161.39l-3.32-5.69c-.37.05-.75.08-1.16.08h-3.9v5.62h-1.54v-17.71h5.44c3.7,0,5.94,2.28,5.94,6.07,0,2.78-1.21,4.73-3.32,5.57l3.55,6.07h-1.68ZM538.55,149.76c0-2.83-1.54-4.45-4.44-4.45h-3.86v8.88h3.86c2.91,0,4.44-1.64,4.44-4.43Z"/>
    <path class="cls-1" d="M557.54,159.78v1.62h-10.28v-17.71h9.97v1.62h-8.43v6.3h7.52v1.59h-7.52v6.58h8.74Z"/>
    <path class="cls-1" d="M563.3,159.24l.6-1.44c1.04,1.24,2.89,2.15,4.8,2.15,2.72,0,3.9-1.39,3.9-3.14,0-4.86-8.95-1.87-8.95-8.42,0-2.61,1.66-4.86,5.36-4.86,1.64,0,3.34.58,4.51,1.57l-.52,1.49c-1.25-.99-2.7-1.47-3.99-1.47-2.66,0-3.84,1.44-3.84,3.21,0,4.86,8.95,1.92,8.95,8.37,0,2.61-1.7,4.83-5.42,4.83-2.18,0-4.32-.94-5.4-2.3Z"/>
    <path class="cls-1" d="M579.71,152.54c0-5.19,3.24-9.01,7.62-9.01,2.12,0,4.03.86,5.32,2.58l-.98,1.19c-1.18-1.47-2.64-2.1-4.3-2.1-3.51,0-6.15,3.14-6.15,7.34s2.64,7.34,6.15,7.34c1.66,0,3.12-.63,4.3-2.13l.98,1.19c-1.29,1.72-3.2,2.61-5.34,2.61-4.36,0-7.6-3.82-7.6-9.01Z"/>
    <path class="cls-1" d="M599.3,153.83v-10.14h1.54v10.07c0,4.2,1.62,6.12,4.44,6.12s4.46-1.92,4.46-6.12v-10.07h1.5v10.14c0,5.08-2.24,7.72-5.96,7.72s-5.98-2.63-5.98-7.72Z"/>
    <path class="cls-1" d="M629.69,159.78v1.62h-10.28v-17.71h9.97v1.62h-8.43v6.3h7.52v1.59h-7.52v6.58h8.74Z"/>
  </g>
</svg>